<svg width="172" height="115" viewBox="0 0 172 115" fill="none" xmlns="http://www.w3.org/2000/svg">
<circle cx="45.5" cy="44.5" r="39" stroke="white" stroke-width="5"/>
<circle cx="93.5" cy="72.5" r="35" stroke="white" stroke-width="5"/>
<circle cx="148.5" cy="64.5" r="13.5" fill="white"/>
<path d="M53.312 30.44V27.68H65.312V30.44H60.752V44H57.872V30.44H53.312ZM75.0065 44L73.9985 40.808H68.4065L67.3985 44H64.5425L69.9905 27.68H72.5345L78.0065 44H75.0065ZM69.9665 35.816L69.2225 38.168H73.1585L72.4145 35.816L71.2145 31.688L69.9665 35.816ZM84.2846 41.576C86.1406 41.576 87.0686 40.888 87.0686 39.512C87.0686 38.952 86.9246 38.512 86.6366 38.192C86.3646 37.872 85.8526 37.592 85.1006 37.352L83.1326 36.704C80.7806 35.936 79.6046 34.392 79.6046 32.072C79.6046 30.728 80.0206 29.624 80.8526 28.76C81.7006 27.88 83.0206 27.44 84.8126 27.44C85.5646 27.44 86.3086 27.528 87.0446 27.704C87.7806 27.864 88.5646 28.128 89.3966 28.496L88.5086 30.968C87.7406 30.664 87.0846 30.448 86.5406 30.32C86.0126 30.176 85.4686 30.104 84.9086 30.104C84.1726 30.104 83.5886 30.24 83.1566 30.512C82.7406 30.768 82.5326 31.24 82.5326 31.928C82.5326 32.44 82.6766 32.864 82.9646 33.2C83.2686 33.52 83.7646 33.792 84.4526 34.016L86.4206 34.664C87.6046 35.064 88.4926 35.648 89.0846 36.416C89.6926 37.168 89.9966 38.168 89.9966 39.416C89.9966 40.856 89.5406 42.024 88.6286 42.92C87.7166 43.8 86.2846 44.24 84.3326 44.24C83.5646 44.24 82.7646 44.152 81.9326 43.976C81.1166 43.784 80.2206 43.464 79.2446 43.016L80.1326 40.544C81.0286 40.928 81.7886 41.2 82.4126 41.36C83.0526 41.504 83.6766 41.576 84.2846 41.576ZM101.818 44L97.7384 36.872C97.4664 37.176 97.1864 37.48 96.8984 37.784C96.6264 38.088 96.3384 38.4 96.0344 38.72V44H93.1544V27.68H96.0344V35.432C97.2504 34.04 98.2904 32.72 99.1544 31.472C100.018 30.208 100.762 28.944 101.386 27.68H104.53C103.842 29.056 103.106 30.36 102.322 31.592C101.554 32.808 100.738 33.936 99.8744 34.976L105.298 44H101.818Z" fill="#8317A9"/>
<path d="M58.4 56.68L62.96 67.84L67.496 56.68H70.64V73H67.88V66.76L68.24 61.048L64.184 71.08H61.616L57.656 61.024L58.016 66.76V73H55.256V56.68H58.4ZM83.8424 73L82.8344 69.808H77.2424L76.2344 73H73.3784L78.8264 56.68H81.3704L86.8424 73H83.8424ZM78.8024 64.816L78.0584 67.168H81.9944L81.2504 64.816L80.0504 60.688L78.8024 64.816ZM89.5685 73V56.68H92.2085C93.4725 58.328 94.6725 60.072 95.8085 61.912C96.9445 63.736 97.9765 65.616 98.9045 67.552L98.6885 62.68V56.68H101.449V73H98.8085C97.7845 70.984 96.7205 68.96 95.6165 66.928C94.5285 64.88 93.3685 62.952 92.1365 61.144L92.3285 66.76V73H89.5685ZM114.639 73L113.631 69.808H108.039L107.031 73H104.175L109.623 56.68H112.167L117.639 73H114.639ZM109.599 64.816L108.855 67.168H112.791L112.047 64.816L110.847 60.688L109.599 64.816ZM130.697 71.944C130.297 72.184 129.633 72.464 128.705 72.784C127.793 73.088 126.721 73.24 125.489 73.24C124.097 73.24 122.929 72.952 121.985 72.376C121.057 71.8 120.353 71.008 119.873 70C119.393 68.992 119.153 67.84 119.153 66.544V63.112C119.153 61.784 119.393 60.624 119.873 59.632C120.353 58.624 121.065 57.84 122.009 57.28C122.969 56.72 124.169 56.44 125.609 56.44C126.313 56.44 127.041 56.52 127.793 56.68C128.545 56.824 129.369 57.096 130.265 57.496L129.377 60.016C128.593 59.712 127.913 59.496 127.337 59.368C126.777 59.224 126.217 59.152 125.657 59.152C124.409 59.152 123.505 59.512 122.945 60.232C122.385 60.936 122.105 61.896 122.105 63.112V66.544C122.105 67.696 122.385 68.64 122.945 69.376C123.521 70.112 124.417 70.48 125.633 70.48C126.001 70.48 126.401 70.448 126.833 70.384C127.265 70.32 127.681 70.232 128.081 70.12V66.544H125.441V64.024H130.697V71.944ZM143.814 70.24V73H134.358V56.68H143.574V59.44H137.238V63.352H142.854V66.112H137.238V70.24H143.814ZM150.105 67V73H147.225V56.68H152.673C154.321 56.68 155.585 57.104 156.465 57.952C157.361 58.784 157.809 59.904 157.809 61.312V62.344C157.809 63.272 157.609 64.088 157.209 64.792C156.809 65.496 156.233 66.032 155.481 66.4C156.793 68.64 157.913 70.84 158.841 73H155.553C154.753 71 153.801 69 152.697 67H150.105ZM152.673 59.32H150.105V64.36H152.673C153.377 64.36 153.913 64.184 154.281 63.832C154.665 63.464 154.857 62.968 154.857 62.344V61.312C154.857 60.704 154.665 60.224 154.281 59.872C153.913 59.504 153.377 59.32 152.673 59.32Z" fill="black"/>
</svg>
